<?xml version="1.0" standalone="no"?>
<!DOCTYPE svg PUBLIC "-//W3C//DTD SVG 20010904//EN"
 "http://www.w3.org/TR/2001/REC-SVG-20010904/DTD/svg10.dtd">
<svg version="1.0" xmlns="http://www.w3.org/2000/svg"
 width="260.000000pt" height="260.000000pt" viewBox="0 0 260.000000 260.000000"
 preserveAspectRatio="xMidYMid meet">
<metadata>
Created by potrace 1.11, written by Peter Selinger 2001-2013
</metadata>
<g transform="translate(0.000000,260.000000) scale(0.100000,-0.100000)"
fill="#000000" stroke="none">
<path d="M114 2086 l-34 -34 0 -792 0 -792 34 -34 34 -34 1152 0 1152 0 34 34
34 34 0 792 0 792 -34 34 -34 34 -1152 0 -1152 0 -34 -34z m886 -351 l0 -45
-195 0 -195 0 0 -185 0 -185 180 0 180 0 0 -40 0 -40 -180 0 -180 0 0 -190 0
-190 210 0 210 0 0 -45 0 -45 -260 0 -260 0 0 505 0 505 245 0 245 0 0 -45z
m361 -325 c71 -201 139 -394 151 -430 22 -69 38 -96 38 -67 0 10 70 209 156
442 l157 425 54 0 53 0 -13 -32 c-8 -18 -94 -246 -193 -506 l-179 -473 -48 3
-49 3 -164 450 c-90 248 -173 474 -184 503 l-20 53 56 -3 56 -3 129 -365z"/>
</g>
</svg>
